HIERARCHY
ROOT Hips
{
	OFFSET 46.341301 -7.855906 95.601997
	CHANNELS 6 Xposition Yposition Zposition Xrotation Yrotation Zrotation
	JOINT spine
	{
		OFFSET 0.000000 -0.458069 7.965683
		CHANNELS 3 Xrotation Yrotation Zrotation
		JOINT spine1
		{
			OFFSET 0.000000 -0.000001 10.243103
			CHANNELS 3 Xrotation Yrotation Zrotation
			JOINT spine2
			{
				OFFSET 0.000000 -0.000002 9.814751
				CHANNELS 3 Xrotation Yrotation Zrotation
				JOINT Neck
				{
					OFFSET 0.000000 -1.201384 25.198593
					CHANNELS 3 Xrotation Yrotation Zrotation
					JOINT Head
					{
						OFFSET 0.000000 -0.000002 7.613144
						CHANNELS 3 Xrotation Yrotation Zrotation
						End Site
						{
							OFFSET 0.000000 6.077328 18.428101
						}
					}
				}
				JOINT RightShoulder
				{
					OFFSET -4.132698 0.575449 10.599197
					CHANNELS 3 Xrotation Yrotation Zrotation
					JOINT RightArm
					{
						OFFSET 0.000000 -0.000002 13.901794
						CHANNELS 3 Xrotation Yrotation Zrotation
						JOINT RightArmRoll
						{
							OFFSET 0.000000 -0.000001 7.017883
							CHANNELS 3 Xrotation Yrotation Zrotation
							JOINT RightForeArm
							{
								OFFSET 0.000000 -0.000003 20.440598
								CHANNELS 3 Xrotation Yrotation Zrotation
								JOINT RightForeArmRoll
								{
									OFFSET 0.000000 -0.000001 7.875153
									CHANNELS 3 Xrotation Yrotation Zrotation
									JOINT RightHand
									{
										OFFSET 0.000000 -0.000002 15.803696
										CHANNELS 3 Xrotation Yrotation Zrotation
										End Site
										{
											OFFSET 0.000000 0.000000 0.100006
										}
									}
								}
							}
						}
					}
				}
				JOINT LeftShoulder
				{
					OFFSET 4.132698 0.575449 10.599197
					CHANNELS 3 Xrotation Yrotation Zrotation
					JOINT LeftArm
					{
						OFFSET 0.000000 -0.000002 13.901794
						CHANNELS 3 Xrotation Yrotation Zrotation
						JOINT LeftArmRoll
						{
							OFFSET 0.000000 -0.000001 7.017883
							CHANNELS 3 Xrotation Yrotation Zrotation
							JOINT LeftForeArm
							{
								OFFSET 0.000000 -0.000003 20.440598
								CHANNELS 3 Xrotation Yrotation Zrotation
								JOINT LeftForeArmRoll
								{
									OFFSET 0.000000 -0.000001 7.875153
									CHANNELS 3 Xrotation Yrotation Zrotation
									JOINT LeftHand
									{
										OFFSET 0.000000 -0.000002 15.803696
										CHANNELS 3 Xrotation Yrotation Zrotation
										End Site
										{
											OFFSET 0.000000 0.000000 0.100006
										}
									}
								}
							}
						}
					}
				}
			}
		}
	}
	JOINT RightUpLeg
	{
		OFFSET -7.060478 1.086101 -1.294701
		CHANNELS 3 Xrotation Yrotation Zrotation
		JOINT RightUpLegRoll
		{
			OFFSET 0.000000 -0.000003 18.530800
			CHANNELS 3 Xrotation Yrotation Zrotation
			JOINT RightLeg
			{
				OFFSET 0.000000 0.000004 -22.947601
				CHANNELS 3 Xrotation Yrotation Zrotation
				JOINT RightLegRoll
				{
					OFFSET 0.000000 -0.000004 23.022598
					CHANNELS 3 Xrotation Yrotation Zrotation
					JOINT RightFoot
					{
						OFFSET 0.000000 -0.000003 19.162498
						CHANNELS 3 Xrotation Yrotation Zrotation
						JOINT RightToeBase
						{
							OFFSET 0.000000 -0.000003 16.018799
							CHANNELS 3 Xrotation Yrotation Zrotation
							End Site
							{
								OFFSET 0.006790 0.894205 7.757812
							}
						}
					}
				}
			}
		}
	}
	JOINT LeftUpLeg
	{
		OFFSET 7.060478 1.086101 -1.294701
		CHANNELS 3 Xrotation Yrotation Zrotation
		JOINT LeftUpLegRoll
		{
			OFFSET 0.000000 -0.000003 18.530899
			CHANNELS 3 Xrotation Yrotation Zrotation
			JOINT LeftLeg
			{
				OFFSET 0.000000 -0.000003 22.947495
				CHANNELS 3 Xrotation Yrotation Zrotation
				JOINT LeftLegRoll
				{
					OFFSET 0.000000 -0.000004 23.235504
					CHANNELS 3 Xrotation Yrotation Zrotation
					JOINT LeftFoot
					{
						OFFSET 0.000000 -0.000003 18.949600
						CHANNELS 3 Xrotation Yrotation Zrotation
						JOINT LeftToeBase
						{
							OFFSET 0.000000 -0.000002 16.018799
							CHANNELS 3 Xrotation Yrotation Zrotation
							End Site
							{
								OFFSET -0.030430 0.894205 7.757812
							}
						}
					}
				}
			}
		}
	}
}
MOTION
Frames: 11
Frame Time: 0.041667
84.678299 -16.644617 94.420891 -6.816040 10.241858 102.192484 -0.872667 0.846071 1.300427 2.239049 1.677407 2.605606 3.883729 1.708489 2.585332 4.352953 38.466362 -6.710190 9.966510 -44.417523 -2.848711 8.543797 -11.910425 21.601298 -80.063696 -168.122456 -70.729225 0.000001 0.000006 -0.000005 23.215490 3.812880 0.227428 -0.000004 0.000000 -3.007472 -4.999741 -7.999018 0.000015 -135.826289 83.412333 141.014651 152.279368 121.799826 -116.042400 -0.000003 0.000000 -0.000007 91.607378 -4.269473 15.853521 0.000029 -0.000014 2.999990 -4.999745 7.999078 -0.000037 11.361524 -183.368846 -4.544340 -179.999991 0.000005 -1.108999 172.871965 -2.805182 -0.701653 0.000002 0.000002 0.044462 66.788199 6.842025 2.397905 27.217500 -7.394283 -1.132935 -30.478466 181.183335 9.047983 -0.000019 -0.000004 -0.614899 -12.924997 -1.759443 0.286991 0.000001 0.000007 -0.536348 71.985235 -6.825005 -2.097528 25.456945 7.355479 -0.000004 
84.710098 -16.656118 94.423492 -6.791479 10.309031 102.340925 -0.858172 0.839836 1.309689 2.268058 1.664864 2.623881 3.912727 1.696169 2.603758 4.091857 38.784082 -6.660547 10.159269 -44.542901 -2.825488 8.783609 -11.855563 21.987410 -79.536542 -168.023214 -70.607463 0.000002 0.000006 -0.000005 23.108787 3.620326 0.210414 -0.000002 -0.000001 -3.007466 -4.999740 -7.999022 0.000015 -136.243696 83.343874 141.443273 152.438935 121.744379 -116.306879 -0.000001 -0.000000 -0.000009 91.612153 -4.221134 15.805213 0.000027 -0.000014 2.999992 -4.999745 7.999076 -0.000036 11.257555 -183.319067 -4.533303 -179.999991 0.000005 -1.105993 172.930336 -2.794624 -0.698442 -0.000000 0.000002 0.043088 66.780836 6.841888 2.399137 27.437809 -7.401847 -1.207700 -30.535925 181.266213 9.078073 -0.000018 -0.000004 -0.614992 -12.923325 -1.763247 0.287452 0.000001 0.000007 -0.536262 72.008383 -6.823223 -2.100929 25.456943 7.355469 -0.000000 
84.744492 -16.668417 94.411491 -6.766507 10.375618 102.492159 -0.842249 0.834117 1.319042 2.299909 1.653517 2.642299 3.944559 1.685039 2.622316 3.796469 39.091481 -6.599520 10.378875 -44.659595 -2.793953 8.993146 -11.807448 22.327120 -78.996575 -167.964925 -70.477758 0.000000 0.000011 -0.000008 22.995582 3.438833 0.194821 -0.000001 -0.000003 -3.007465 -4.999744 -7.999017 0.000009 -136.566108 83.275948 141.778130 152.612545 121.681733 -116.573284 0.000000 -0.000001 -0.000008 91.617999 -4.176034 15.761087 0.000030 -0.000013 2.999992 -4.999747 7.999079 -0.000037 11.154622 -183.270190 -4.522154 -179.999991 0.000006 -1.103004 172.983557 -2.785021 -0.695636 -0.000001 0.000002 0.041815 66.774497 6.841681 2.400386 27.673859 -7.410157 -1.271202 -30.596013 181.352382 9.108692 -0.000020 -0.000004 -0.615171 -12.929653 -1.766672 0.287911 0.000001 0.000007 -0.536771 72.029584 -6.822242 -2.102178 25.456945 7.355470 -0.000010 
84.765091 -16.677216 94.433792 -6.740969 10.441232 102.648126 -0.824658 0.828968 1.328454 2.335081 1.643484 2.660832 3.979725 1.675232 2.640967 3.461303 39.387788 -6.524916 10.629548 -44.767157 -2.752551 9.169059 -11.770390 22.613845 -78.441683 -167.955567 -70.338039 -0.000002 0.000008 -0.000006 22.876658 3.269917 0.180990 -0.000004 -0.000000 -3.007470 -4.999742 -7.999022 0.000012 -136.782926 83.209025 142.008813 152.800785 121.611204 -116.840071 -0.000001 -0.000001 -0.000009 91.624870 -4.134600 15.720857 0.000028 -0.000015 2.999991 -4.999746 7.999079 -0.000036 11.053519 -183.222242 -4.511113 -179.999991 0.000005 -1.099997 173.031778 -2.775381 -0.693080 -0.000000 0.000002 0.040640 66.769300 6.841374 2.401648 27.926260 -7.419092 -1.321576 -30.658940 181.442691 9.139284 -0.000017 -0.000004 -0.615459 -12.945377 -1.769474 0.288380 0.000002 0.000007 -0.537995 72.048558 -6.822227 -2.100917 25.456945 7.355460 -0.000005 
84.794098 -16.685818 94.417595 -6.714339 10.508958 102.806074 -0.805575 0.824679 1.338195 2.373218 1.635356 2.680044 4.017845 1.667334 2.660263 3.072167 39.670497 -6.432658 10.922519 -44.859187 -2.698260 9.304153 -11.736363 22.838857 -77.863316 -167.998092 -70.197139 -0.000002 0.000011 -0.000008 22.750469 3.104681 0.169306 -0.000001 -0.000001 -3.007467 -4.999738 -7.999022 0.000014 -136.869860 83.142779 142.111566 153.012247 121.529583 -117.112336 0.000002 -0.000001 -0.000008 91.632800 -4.096934 15.686602 0.000031 -0.000015 2.999991 -4.999749 7.999076 -0.000037 10.949120 -183.173297 -4.498171 -179.999991 0.000005 -1.097006 173.072076 -2.765692 -0.690920 -0.000000 0.000002 0.039621 66.765529 6.841009 2.402906 28.205217 -7.428816 -1.358197 -30.727932 181.537112 9.170909 -0.000017 -0.000004 -0.615803 -12.969806 -1.771767 0.288797 0.000001 0.000007 -0.539753 72.065025 -6.822941 -2.097724 25.456945 7.355459 -0.000005 
84.816704 -16.690115 94.412285 -6.686345 10.581788 102.965286 -0.785417 0.821394 1.348502 2.413466 1.629404 2.700361 4.058080 1.661625 2.680662 2.624542 39.938896 -6.321640 11.261099 -44.931996 -2.631038 9.397656 -11.695472 23.003041 -77.256912 -168.086762 -70.059354 -0.000002 0.000012 -0.000008 22.615311 2.934734 0.159530 -0.000006 -0.000001 -3.007467 -4.999742 -7.999018 0.000010 -136.824071 83.076813 142.083917 153.252574 121.436078 -117.395434 0.000000 -0.000002 -0.000006 91.641468 -4.062752 15.655222 0.000030 -0.000015 2.999991 -4.999745 7.999078 -0.000035 10.836876 -183.119503 -4.481168 -179.999991 0.000005 -1.095000 173.102170 -2.757921 -0.689506 -0.000001 0.000002 0.038808 66.763726 6.840531 2.404321 28.517143 -7.439523 -1.382837 -30.805219 181.637256 9.203230 -0.000016 -0.000004 -0.616144 -13.000936 -1.773942 0.289090 0.000002 0.000007 -0.541768 72.079055 -6.824074 -2.093545 25.456945 7.355450 -0.000002 
84.846008 -16.711115 94.401794 -6.657175 10.658719 103.125673 -0.764290 0.818963 1.359275 2.455628 1.625316 2.721598 4.100230 1.657787 2.701949 2.127457 40.194721 -6.194190 11.637509 -44.988796 -2.553136 9.455741 -11.649315 23.114810 -76.628104 -168.215320 -69.922935 -0.000002 0.000007 -0.000007 22.471046 2.762541 0.151197 -0.000004 -0.000001 -3.007468 -4.999737 -7.999016 0.000014 -136.670091 83.010984 141.949964 153.518296 121.332683 -117.688531 -0.000000 -0.000001 -0.000008 91.650928 -4.031590 15.627210 0.000027 -0.000015 2.999988 -4.999748 7.999075 -0.000038 10.718116 -183.062744 -4.460977 -179.999991 0.000005 -1.092005 173.123138 -2.751097 -0.687660 0.000001 0.000002 0.038177 66.763672 6.839948 2.405604 28.857573 -7.451067 -1.397091 -30.889418 181.742263 9.236495 -0.000018 -0.000004 -0.616491 -13.038072 -1.776151 0.289273 0.000001 0.000007 -0.544023 72.090994 -6.825585 -2.088455 25.456941 7.355450 -0.000002 
84.869492 -16.719616 94.390289 -6.627025 10.738662 103.287152 -0.742303 0.817238 1.370420 2.499481 1.622764 2.743560 4.144072 1.655492 2.723929 1.590080 40.439798 -6.052821 12.043964 -45.032708 -2.467420 9.484435 -11.599290 23.182576 -75.982487 -168.377619 -69.786413 0.000002 0.000006 -0.000006 22.317841 2.590529 0.143799 -0.000004 0.000002 -3.007470 -4.999736 -7.999019 0.000015 -136.429969 82.945360 141.731343 153.805437 121.221514 -117.990644 0.000002 -0.000002 -0.000008 91.661132 -4.002835 15.603151 0.000026 -0.000014 2.999990 -4.999750 7.999075 -0.000038 10.594453 -183.004018 -4.438296 -179.999991 0.000005 -1.089001 173.136102 -2.746209 -0.687438 -0.000001 0.000001 0.037710 66.765161 6.839323 2.406983 29.222070 -7.463303 -1.402519 -30.979132 181.851273 9.270698 -0.000019 -0.000004 -0.616852 -13.080513 -1.778544 0.289353 0.000002 0.000007 -0.546502 72.101116 -6.827402 -2.082623 25.456943 7.355441 -0.000007 
84.892998 -16.721916 94.370895 -6.596084 10.820912 103.450646 -0.719567 0.816062 1.381818 2.544830 1.621420 2.766037 4.189399 1.654429 2.746427 1.021709 40.675798 -5.900234 12.472719 -45.066763 -2.376204 9.489692 -11.546489 23.215031 -75.325853 -168.567211 -69.649085 0.000002 0.000009 -0.000007 22.155730 2.421130 0.136896 -0.000005 -0.000001 -3.007470 -4.999738 -7.999016 0.000013 -136.125820 82.879804 141.449926 154.110269 121.104677 -118.300830 -0.000001 -0.000001 -0.000006 91.672033 -3.976288 15.580845 0.000029 -0.000015 2.999990 -4.999747 7.999074 -0.000038 10.467389 -182.943297 -4.413646 -179.999991 0.000006 -1.087007 173.142126 -2.741281 -0.686552 -0.000004 0.000002 0.037385 66.767995 6.838627 2.408462 29.605981 -7.476083 -1.400780 -31.073061 181.964258 9.305543 -0.000018 -0.000004 -0.617236 -13.127455 -1.781254 0.289348 0.000002 0.000007 -0.549186 72.109825 -6.829487 -2.076119 25.456943 7.355441 -0.000007 
84.889099 -16.730915 94.360481 -6.564513 10.904279 103.615069 -0.696185 0.815285 1.393387 2.591448 1.620980 2.788844 4.236008 1.654260 2.769231 0.431694 40.904497 -5.739232 12.916062 -45.094056 -2.281980 9.477404 -11.491990 23.220497 -74.663188 -168.778305 -69.507311 0.000001 0.000012 -0.000009 21.984743 2.256782 0.130083 -0.000003 0.000001 -3.007468 -4.999739 -7.999019 0.000013 -135.778574 82.814275 141.126202 154.429143 120.984165 -118.618283 -0.000001 -0.000002 -0.000006 91.683637 -3.951282 15.561679 0.000029 -0.000013 2.999992 -4.999750 7.999076 -0.000037 10.338143 -182.881553 -4.387667 -179.999991 0.000005 -1.084998 173.142331 -2.737307 -0.686064 -0.000001 0.000002 0.037184 66.772086 6.837887 2.409855 30.004854 -7.489277 -1.393452 -31.169794 182.079538 9.341665 -0.000017 -0.000005 -0.617647 -13.178101 -1.784430 0.289268 0.000001 0.000007 -0.552059 72.117331 -6.831764 -2.069122 25.456941 7.355433 -0.000003 
84.983505 -16.740517 94.336693 -6.532526 10.987961 103.780339 -0.672272 0.814756 1.405032 2.639125 1.621108 2.811779 4.283680 1.654657 2.792168 -0.170544 41.127673 -5.572697 13.366407 -45.117723 -2.187125 9.453416 -11.436779 23.207496 -74.000209 -169.004357 -69.360619 -0.000001 0.000006 -0.000007 21.804896 2.099939 0.122939 -0.000002 -0.000001 -3.007469 -4.999738 -7.999019 0.000013 -135.408377 82.748794 140.779980 154.758098 120.862110 -118.941925 0.000002 -0.000001 -0.000007 91.695850 -3.927553 15.543257 0.000024 -0.000014 2.999989 -4.999751 7.999076 -0.000037 10.208413 -182.819739 -4.361028 -179.999991 0.000005 -1.082008 173.137782 -2.734296 -0.685925 0.000000 0.000002 0.037086 66.777284 6.837050 2.411261 30.414047 -7.502785 -1.382169 -31.267885 182.198807 9.377657 -0.000017 -0.000004 -0.618096 -13.231959 -1.788233 0.289114 0.000002 0.000007 -0.555104 72.123929 -6.834197 -2.061802 25.456938 7.355433 -0.000002 
